<mxfile host="app.diagrams.net" modified="2023-10-11T22:55:21.039Z" agent="Mozilla/5.0 (X11; Linux x86_64; rv:109.0) Gecko/20100101 Firefox/118.0" version="22.0.4" etag="vI9YA9y4khiy-QeYEetP" type="github">
  <diagram name="Page-1" id="dOqFWSm4WeKNTOv_G3XP">
    <mxGraphModel>
      <root>
        <mxCell id="0" />
        <mxCell id="1" parent="0" />
      </root>
    </mxGraphModel>
  </diagram>
</mxfile>
